<svg width="606" height="576" viewBox="0 0 606 576" fill="none" xmlns="http://www.w3.org/2000/svg">
<g opacity="0.1">
<path fill-rule="evenodd" clip-rule="evenodd" d="M329.59 227.642H276.415L259.968 278.266L260.043 278.318L276.415 227.902H329.585L345.962 278.318L346.031 278.266L329.59 227.642ZM323.867 235.809L323.862 235.797H282.138L282.132 235.809H323.867ZM303.003 271.561L308.934 267.254L306.664 260.277H299.342L297.066 267.254L303.003 271.561ZM251 281.191L270.86 220H335.14L355 281.191L303.003 319L251 281.191Z" fill="white"/>
<path fill-rule="evenodd" clip-rule="evenodd" d="M335.331 220.381H270.663L250.682 281.87L302.994 319.869L355.318 281.87L335.331 220.381ZM242 284.689L265.302 213H340.692L364 284.689L302.994 329L242 284.689Z" fill="white"/>
<path fill-rule="evenodd" clip-rule="evenodd" d="M341.077 212.124H264.929L241.396 284.471L303 329.191L364.605 284.471L341.077 212.124ZM233 287.196L259.752 205H346.254L373 287.196L303 338L233 287.196Z" fill="white"/>
<path fill-rule="evenodd" clip-rule="evenodd" d="M346.815 203.872H259.184L232.091 287.079L302.997 338.496L373.903 287.079L346.815 203.872ZM224 289.704L254.179 197H351.815L382 289.704L302.997 347L224 289.704Z" fill="white"/>
<path fill-rule="evenodd" clip-rule="evenodd" d="M351.789 195.615H253.222L222.753 289.684L302.503 347.816L382.252 289.684L351.789 195.615ZM215 292.211L248.429 189H356.577L390 292.211L302.503 356L215 292.211Z" fill="white"/>
<path fill-rule="evenodd" clip-rule="evenodd" d="M357.522 187.366H247.472L213.471 292.287L302.5 357.124L391.529 292.287L357.522 187.366ZM206 294.714L242.865 181H362.129L399 294.714L302.5 365L206 294.714Z" fill="white"/>
<path fill-rule="evenodd" clip-rule="evenodd" d="M363.264 179.116H241.735L204.176 294.884L302.497 366.432L400.824 294.884L363.264 179.116ZM197 297.219L237.304 173H367.701L408 297.219L302.497 374L197 297.219Z" fill="white"/>
<path fill-rule="evenodd" clip-rule="evenodd" d="M369.012 170.861H235.993L194.88 297.493L302.497 375.756L410.12 297.493L369.012 170.861ZM188 299.724L231.739 165H373.261L417 299.724L302.497 383L188 299.724Z" fill="white"/>
<path fill-rule="evenodd" clip-rule="evenodd" d="M374.749 163.612H230.251L185.584 301.089L302.497 386.062L419.416 301.089L374.749 163.612ZM179 303.233L226.173 158H378.821L426 303.233L302.497 393L179 303.233Z" fill="white"/>
<path fill-rule="evenodd" clip-rule="evenodd" d="M380.495 155.352H224.511L176.297 303.7L302.5 395.374L428.708 303.7L380.495 155.352ZM170 305.746L220.616 150H384.384L435 305.746L302.5 402L170 305.746Z" fill="white"/>
<path fill-rule="evenodd" clip-rule="evenodd" d="M386.235 147.109H218.765L167 306.304L302.5 404.686L438 306.304L386.235 147.109ZM161 308.251L215.054 142H389.946L444 308.251L302.5 411L161 308.251Z" fill="white"/>
<path fill-rule="evenodd" clip-rule="evenodd" d="M391.978 138.855H213.016L157.702 308.9L302.5 413.998L447.299 308.9L391.978 138.855ZM152 310.755L209.494 134H395.5L453 310.755L302.5 420L152 310.755Z" fill="white"/>
<path fill-rule="evenodd" clip-rule="evenodd" d="M397.73 130.59H207.282L148.415 311.503L302.5 423.316L456.597 311.503L397.73 130.59ZM143 313.266L203.938 126H401.068L462 313.266L302.5 429L143 313.266Z" fill="white"/>
<path fill-rule="evenodd" clip-rule="evenodd" d="M403.465 122.348H201.535L139.122 314.107L302.497 432.627L465.879 314.107L403.465 122.348ZM134 315.766L198.369 118H406.631L471 315.766L302.497 438L134 315.766Z" fill="white"/>
<path fill-rule="evenodd" clip-rule="evenodd" d="M409.214 114.094H195.791L129.822 316.718L302.503 441.944L475.183 316.718L409.214 114.094ZM126.206 319.148L125 318.273L192.809 110H412.203L480 318.273L302.503 447L126.206 319.148Z" fill="white"/>
<path fill-rule="evenodd" clip-rule="evenodd" d="M414.949 105.846H190.045L120.523 319.31L302.497 451.25L484.471 319.31L414.949 105.846ZM116 320.784L187.241 102H417.747L489 320.784L302.497 456L116 320.784Z" fill="white"/>
<path fill-rule="evenodd" clip-rule="evenodd" d="M420.7 98.5869H184.3L111.229 322.921L302.5 461.561L493.77 322.921L420.7 98.5869ZM107 324.286L181.68 95H423.32L498 324.286L302.5 466L107 324.286Z" fill="white"/>
<path fill-rule="evenodd" clip-rule="evenodd" d="M426.639 90.3335H179.361L102.932 325.523L302.997 470.872L503.068 325.523L426.639 90.3335ZM99 326.795L176.937 87H429.063L507 326.795L302.997 475L99 326.795Z" fill="white"/>
<path fill-rule="evenodd" clip-rule="evenodd" d="M432.383 82.0913H173.612L93.6279 328.12L302.997 480.183L512.372 328.12L432.383 82.0913ZM90.9041 329.963L90 329.301L171.378 79H434.628L516 329.301L302.997 484L90.9041 329.963Z" fill="white"/>
<path fill-rule="evenodd" clip-rule="evenodd" d="M438.124 73.832H167.876L84.3462 330.723L303 489.494L521.659 330.723L438.124 73.832ZM81 331.806L165.814 71H440.191L525 331.806L303 493L81 331.806Z" fill="white"/>
<path fill-rule="evenodd" clip-rule="evenodd" d="M530.958 333.33L443.873 65.5845H162.132L75.0415 333.33L303 498.811L530.958 333.33ZM72.7604 334.873L72 334.321L159.955 63.8922L160.249 63H445.751L534 334.321L303.76 501.453L303 502L72.7604 334.873Z" fill="white"/>
<path fill-rule="evenodd" clip-rule="evenodd" d="M449.618 57.3311H156.382L65.7485 335.926L303.003 508.116L540.252 335.926L449.618 57.3311ZM63 336.824L154.688 55H451.312L543 336.824L303.003 511L63 336.824Z" fill="white"/>
<path fill-rule="evenodd" clip-rule="evenodd" d="M455.357 49.0776H150.637L56.4434 338.539L303 517.433L549.551 338.539L455.357 49.0776ZM54.6109 339.777L54 339.339L148.885 47.7195L149.121 47H456.879L551.764 338.62L552 339.339L303 520L54.6109 339.777Z" fill="white"/>
<path fill-rule="evenodd" clip-rule="evenodd" d="M461.108 41.8247H144.892L47.1499 342.135L302.997 527.738L558.85 342.135L461.108 41.8247ZM45.536 343.223L45 342.831L143.353 40.6331L143.566 40H462.434L560.798 342.198L561 342.831L302.997 530L45.536 343.223Z" fill="white"/>
<path fill-rule="evenodd" clip-rule="evenodd" d="M568.132 344.741L466.85 33.5884H139.156L37.8677 344.741L303 537.049L568.132 344.741ZM36.4727 345.679L36 345.339L137.83 32.5525L138.009 32H467.997L569.821 344.792L570 345.339L303.467 538.655L303 539L36.4727 345.679Z" fill="white"/>
<path fill-rule="evenodd" clip-rule="evenodd" d="M472.595 25.3296H133.405L28.5625 347.344L302.997 546.366L577.432 347.344L472.595 25.3296ZM27.3863 348.138L27 347.85L132.292 24.4662L132.436 24H473.558L578.856 347.395L579 347.85L302.997 548L27.3863 348.138Z" fill="white"/>
<path fill-rule="evenodd" clip-rule="evenodd" d="M586.732 349.947L478.341 17.0762H127.665L19.2685 349.947L303 555.665L586.732 349.947ZM18.3229 350.586L18 350.35L126.76 16.3683L126.881 16H479.125L587.879 349.982L588 350.35L303.323 556.764L303 557L18.3229 350.586Z" fill="white"/>
<path fill-rule="evenodd" clip-rule="evenodd" d="M596.02 353.162L484.081 8.81885H121.919L9.97461 353.162L302.994 565.974L596.02 353.162ZM9.24797 353.651L9 353.479L121.319 8H484.681L597 353.479L303.236 566.821L302.994 567L9.24797 353.651Z" fill="white"/>
<path fill-rule="evenodd" clip-rule="evenodd" d="M115.753 0L115.69 0.201757L0 355.981L0.173024 356.108L303 576L303.167 575.873L606 355.981L605.942 355.785L490.253 0H115.753ZM0.674805 355.762L116.18 0.570801H489.826L605.325 355.762L303 575.28L0.674805 355.762Z" fill="white"/>
</g>
</svg>
