<svg width="110" height="18" viewBox="0 0 110 18" fill="none" xmlns="http://www.w3.org/2000/svg">
<path d="M13.4382 10.74C13.2439 10.9283 13.1547 11.2005 13.1989 11.4675L13.8657 15.1575C13.9219 15.4703 13.7899 15.7868 13.5282 15.9675C13.2717 16.155 12.9304 16.1775 12.6507 16.0275L9.32893 14.295C9.21343 14.2335 9.08518 14.2005 8.95393 14.1968H8.75068C8.68018 14.2073 8.61118 14.2298 8.54818 14.2643L5.22568 16.005C5.06143 16.0875 4.87543 16.1168 4.69318 16.0875C4.24918 16.0035 3.95293 15.5805 4.02568 15.1343L4.69318 11.4443C4.73743 11.175 4.64818 10.9013 4.45393 10.71L1.74568 8.085C1.51918 7.86525 1.44043 7.53525 1.54393 7.2375C1.64443 6.9405 1.90093 6.72375 2.21068 6.675L5.93818 6.13425C6.22168 6.105 6.47068 5.9325 6.59818 5.6775L8.24068 2.31C8.27968 2.235 8.32993 2.166 8.39068 2.1075L8.45818 2.055C8.49343 2.016 8.53393 1.98375 8.57893 1.9575L8.66068 1.9275L8.78818 1.875H9.10393C9.38593 1.90425 9.63418 2.073 9.76393 2.325L11.4282 5.6775C11.5482 5.92275 11.7814 6.093 12.0507 6.13425L15.7782 6.675C16.0932 6.72 16.3564 6.9375 16.4607 7.2375C16.5589 7.53825 16.4742 7.86825 16.2432 8.085L13.4382 10.74Z" fill="#F6973F"/>
<path d="M36.4382 10.74C36.2439 10.9283 36.1547 11.2005 36.1989 11.4675L36.8657 15.1575C36.9219 15.4703 36.7899 15.7868 36.5282 15.9675C36.2717 16.155 35.9304 16.1775 35.6507 16.0275L32.3289 14.295C32.2134 14.2335 32.0852 14.2005 31.9539 14.1968H31.7507C31.6802 14.2073 31.6112 14.2298 31.5482 14.2643L28.2257 16.005C28.0614 16.0875 27.8754 16.1168 27.6932 16.0875C27.2492 16.0035 26.9529 15.5805 27.0257 15.1343L27.6932 11.4443C27.7374 11.175 27.6482 10.9013 27.4539 10.71L24.7457 8.085C24.5192 7.86525 24.4404 7.53525 24.5439 7.2375C24.6444 6.9405 24.9009 6.72375 25.2107 6.675L28.9382 6.13425C29.2217 6.105 29.4707 5.9325 29.5982 5.6775L31.2407 2.31C31.2797 2.235 31.3299 2.166 31.3907 2.1075L31.4582 2.055C31.4934 2.016 31.5339 1.98375 31.5789 1.9575L31.6607 1.9275L31.7882 1.875H32.1039C32.3859 1.90425 32.6342 2.073 32.7639 2.325L34.4282 5.6775C34.5482 5.92275 34.7814 6.093 35.0507 6.13425L38.7782 6.675C39.0932 6.72 39.3564 6.9375 39.4607 7.2375C39.5589 7.53825 39.4742 7.86825 39.2432 8.085L36.4382 10.74Z" fill="#F6973F"/>
<path d="M59.4382 10.74C59.2439 10.9283 59.1547 11.2005 59.1989 11.4675L59.8657 15.1575C59.9219 15.4703 59.7899 15.7868 59.5282 15.9675C59.2717 16.155 58.9304 16.1775 58.6507 16.0275L55.3289 14.295C55.2134 14.2335 55.0852 14.2005 54.9539 14.1968H54.7507C54.6802 14.2073 54.6112 14.2298 54.5482 14.2643L51.2257 16.005C51.0614 16.0875 50.8754 16.1168 50.6932 16.0875C50.2492 16.0035 49.9529 15.5805 50.0257 15.1343L50.6932 11.4443C50.7374 11.175 50.6482 10.9013 50.4539 10.71L47.7457 8.085C47.5192 7.86525 47.4404 7.53525 47.5439 7.2375C47.6444 6.9405 47.9009 6.72375 48.2107 6.675L51.9382 6.13425C52.2217 6.105 52.4707 5.9325 52.5982 5.6775L54.2407 2.31C54.2797 2.235 54.3299 2.166 54.3907 2.1075L54.4582 2.055C54.4934 2.016 54.5339 1.98375 54.5789 1.9575L54.6607 1.9275L54.7882 1.875H55.1039C55.3859 1.90425 55.6342 2.073 55.7639 2.325L57.4282 5.6775C57.5482 5.92275 57.7814 6.093 58.0507 6.13425L61.7782 6.675C62.0932 6.72 62.3564 6.9375 62.4607 7.2375C62.5589 7.53825 62.4742 7.86825 62.2432 8.085L59.4382 10.74Z" fill="#F6973F"/>
<path d="M82.4382 10.74C82.2439 10.9283 82.1547 11.2005 82.1989 11.4675L82.8657 15.1575C82.9219 15.4703 82.7899 15.7868 82.5282 15.9675C82.2717 16.155 81.9304 16.1775 81.6507 16.0275L78.3289 14.295C78.2134 14.2335 78.0852 14.2005 77.9539 14.1968H77.7507C77.6802 14.2073 77.6112 14.2298 77.5482 14.2643L74.2257 16.005C74.0614 16.0875 73.8754 16.1168 73.6932 16.0875C73.2492 16.0035 72.9529 15.5805 73.0257 15.1343L73.6932 11.4443C73.7374 11.175 73.6482 10.9013 73.4539 10.71L70.7457 8.085C70.5192 7.86525 70.4404 7.53525 70.5439 7.2375C70.6444 6.9405 70.9009 6.72375 71.2107 6.675L74.9382 6.13425C75.2217 6.105 75.4707 5.9325 75.5982 5.6775L77.2407 2.31C77.2797 2.235 77.3299 2.166 77.3907 2.1075L77.4582 2.055C77.4934 2.016 77.5339 1.98375 77.5789 1.9575L77.6607 1.9275L77.7882 1.875H78.1039C78.3859 1.90425 78.6342 2.073 78.7639 2.325L80.4282 5.6775C80.5482 5.92275 80.7814 6.093 81.0507 6.13425L84.7782 6.675C85.0932 6.72 85.3564 6.9375 85.4607 7.2375C85.5589 7.53825 85.4742 7.86825 85.2432 8.085L82.4382 10.74Z" fill="#F6973F"/>
<path opacity="0.3" d="M105.438 10.74C105.244 10.9283 105.155 11.2005 105.199 11.4675L105.866 15.1575C105.922 15.4703 105.79 15.7868 105.528 15.9675C105.272 16.155 104.93 16.1775 104.651 16.0275L101.329 14.295C101.213 14.2335 101.085 14.2005 100.954 14.1968H100.751C100.68 14.2073 100.611 14.2298 100.548 14.2643L97.2257 16.005C97.0614 16.0875 96.8754 16.1168 96.6932 16.0875C96.2492 16.0035 95.9529 15.5805 96.0257 15.1343L96.6932 11.4443C96.7374 11.175 96.6482 10.9013 96.4539 10.71L93.7457 8.085C93.5192 7.86525 93.4404 7.53525 93.5439 7.2375C93.6444 6.9405 93.9009 6.72375 94.2107 6.675L97.9382 6.13425C98.2217 6.105 98.4707 5.9325 98.5982 5.6775L100.241 2.31C100.28 2.235 100.33 2.166 100.391 2.1075L100.458 2.055C100.493 2.016 100.534 1.98375 100.579 1.9575L100.661 1.9275L100.788 1.875H101.104C101.386 1.90425 101.634 2.073 101.764 2.325L103.428 5.6775C103.548 5.92275 103.781 6.093 104.051 6.13425L107.778 6.675C108.093 6.72 108.356 6.9375 108.461 7.2375C108.559 7.53825 108.474 7.86825 108.243 8.085L105.438 10.74Z" fill="#F6973F"/>
</svg>
